<mxfile host="Electron" agent="Mozilla/5.0 (Windows NT 10.0; Win64; x64) AppleWebKit/537.36 (KHTML, like Gecko) draw.io/24.7.5 Chrome/126.0.6478.183 Electron/31.3.0 Safari/537.36" version="24.7.5">
  <diagram name="第 1 页" id="g83kT8hmhSjwIBh3zD_-">
    <mxGraphModel dx="1782" dy="717" grid="1" gridSize="10" guides="1" tooltips="1" connect="1" arrows="1" fold="1" page="1" pageScale="1" pageWidth="827" pageHeight="1169" math="0" shadow="0">
      <root>
        <mxCell id="0" />
        <mxCell id="1" parent="0" />
        <mxCell id="7jzD0PrvkZTHDHuILsDN-72" value="" style="rounded=0;whiteSpace=wrap;html=1;" vertex="1" parent="1">
          <mxGeometry x="-120" y="310" width="170" height="50" as="geometry" />
        </mxCell>
        <mxCell id="7jzD0PrvkZTHDHuILsDN-9" value="" style="rounded=0;whiteSpace=wrap;html=1;" vertex="1" parent="1">
          <mxGeometry x="70" y="310" width="200" height="50" as="geometry" />
        </mxCell>
        <mxCell id="7jzD0PrvkZTHDHuILsDN-1" value="DAG" style="rounded=0;whiteSpace=wrap;html=1;" vertex="1" parent="1">
          <mxGeometry x="-110" y="315" width="70" height="40" as="geometry" />
        </mxCell>
        <mxCell id="7jzD0PrvkZTHDHuILsDN-3" value="DCS" style="rounded=0;whiteSpace=wrap;html=1;" vertex="1" parent="1">
          <mxGeometry x="-30" y="315" width="70" height="40" as="geometry" />
        </mxCell>
        <mxCell id="7jzD0PrvkZTHDHuILsDN-4" value="" style="rounded=0;whiteSpace=wrap;html=1;" vertex="1" parent="1">
          <mxGeometry x="300" y="310" width="370" height="50" as="geometry" />
        </mxCell>
        <mxCell id="7jzD0PrvkZTHDHuILsDN-6" value="Update" style="text;html=1;align=center;verticalAlign=middle;whiteSpace=wrap;rounded=0;" vertex="1" parent="1">
          <mxGeometry x="300" y="310" width="60" height="30" as="geometry" />
        </mxCell>
        <mxCell id="7jzD0PrvkZTHDHuILsDN-7" value="Preprocessing" style="text;html=1;align=center;verticalAlign=middle;whiteSpace=wrap;rounded=0;" vertex="1" parent="1">
          <mxGeometry x="-120" y="270" width="60" height="30" as="geometry" />
        </mxCell>
        <mxCell id="7jzD0PrvkZTHDHuILsDN-8" value="Initial Matching" style="text;html=1;align=center;verticalAlign=middle;whiteSpace=wrap;rounded=0;" vertex="1" parent="1">
          <mxGeometry x="70" y="320" width="60" height="30" as="geometry" />
        </mxCell>
        <mxCell id="7jzD0PrvkZTHDHuILsDN-10" value="FindMatches" style="rounded=0;whiteSpace=wrap;html=1;" vertex="1" parent="1">
          <mxGeometry x="150" y="320" width="80" height="30" as="geometry" />
        </mxCell>
        <mxCell id="7jzD0PrvkZTHDHuILsDN-11" value="Add/Remove Vertex" style="rounded=0;whiteSpace=wrap;html=1;" vertex="1" parent="1">
          <mxGeometry x="360" y="315" width="90" height="40" as="geometry" />
        </mxCell>
        <mxCell id="7jzD0PrvkZTHDHuILsDN-12" value="Add/Remove Edge" style="rounded=0;whiteSpace=wrap;html=1;" vertex="1" parent="1">
          <mxGeometry x="480" y="315" width="90" height="40" as="geometry" />
        </mxCell>
        <mxCell id="7jzD0PrvkZTHDHuILsDN-13" value="FindMatches" style="rounded=0;whiteSpace=wrap;html=1;" vertex="1" parent="1">
          <mxGeometry x="640" y="420" width="90" height="40" as="geometry" />
        </mxCell>
        <mxCell id="7jzD0PrvkZTHDHuILsDN-18" style="edgeStyle=orthogonalEdgeStyle;rounded=0;orthogonalLoop=1;jettySize=auto;html=1;exitX=1;exitY=0.5;exitDx=0;exitDy=0;entryX=0;entryY=0.5;entryDx=0;entryDy=0;" edge="1" parent="1" source="7jzD0PrvkZTHDHuILsDN-14" target="7jzD0PrvkZTHDHuILsDN-16">
          <mxGeometry relative="1" as="geometry" />
        </mxCell>
        <mxCell id="7jzD0PrvkZTHDHuILsDN-14" value="Graph Update" style="rounded=0;whiteSpace=wrap;html=1;" vertex="1" parent="1">
          <mxGeometry x="310" y="420" width="90" height="40" as="geometry" />
        </mxCell>
        <mxCell id="7jzD0PrvkZTHDHuILsDN-19" style="edgeStyle=orthogonalEdgeStyle;rounded=0;orthogonalLoop=1;jettySize=auto;html=1;exitX=1;exitY=0.5;exitDx=0;exitDy=0;entryX=0;entryY=0.5;entryDx=0;entryDy=0;" edge="1" parent="1" source="7jzD0PrvkZTHDHuILsDN-16" target="7jzD0PrvkZTHDHuILsDN-17">
          <mxGeometry relative="1" as="geometry" />
        </mxCell>
        <mxCell id="7jzD0PrvkZTHDHuILsDN-16" value="DCS Update" style="rounded=0;whiteSpace=wrap;html=1;" vertex="1" parent="1">
          <mxGeometry x="420" y="420" width="90" height="40" as="geometry" />
        </mxCell>
        <mxCell id="7jzD0PrvkZTHDHuILsDN-20" style="edgeStyle=orthogonalEdgeStyle;rounded=0;orthogonalLoop=1;jettySize=auto;html=1;exitX=1;exitY=0.5;exitDx=0;exitDy=0;entryX=0;entryY=0.5;entryDx=0;entryDy=0;" edge="1" parent="1" source="7jzD0PrvkZTHDHuILsDN-17" target="7jzD0PrvkZTHDHuILsDN-13">
          <mxGeometry relative="1" as="geometry" />
        </mxCell>
        <mxCell id="7jzD0PrvkZTHDHuILsDN-17" value="Enumerate Candidate" style="rounded=0;whiteSpace=wrap;html=1;" vertex="1" parent="1">
          <mxGeometry x="530" y="420" width="90" height="40" as="geometry" />
        </mxCell>
        <mxCell id="7jzD0PrvkZTHDHuILsDN-21" value="" style="endArrow=none;html=1;rounded=0;entryX=0;entryY=1;entryDx=0;entryDy=0;" edge="1" parent="1" target="7jzD0PrvkZTHDHuILsDN-12">
          <mxGeometry width="50" height="50" relative="1" as="geometry">
            <mxPoint x="320" y="410" as="sourcePoint" />
            <mxPoint x="470" y="360" as="targetPoint" />
          </mxGeometry>
        </mxCell>
        <mxCell id="7jzD0PrvkZTHDHuILsDN-22" value="" style="endArrow=none;html=1;rounded=0;entryX=1;entryY=1;entryDx=0;entryDy=0;" edge="1" parent="1" target="7jzD0PrvkZTHDHuILsDN-12">
          <mxGeometry width="50" height="50" relative="1" as="geometry">
            <mxPoint x="730" y="410" as="sourcePoint" />
            <mxPoint x="520" y="520" as="targetPoint" />
          </mxGeometry>
        </mxCell>
        <mxCell id="7jzD0PrvkZTHDHuILsDN-51" style="edgeStyle=orthogonalEdgeStyle;rounded=0;orthogonalLoop=1;jettySize=auto;html=1;exitX=1;exitY=0.5;exitDx=0;exitDy=0;entryX=0;entryY=0.5;entryDx=0;entryDy=0;" edge="1" parent="1" source="7jzD0PrvkZTHDHuILsDN-49" target="7jzD0PrvkZTHDHuILsDN-50">
          <mxGeometry relative="1" as="geometry" />
        </mxCell>
        <mxCell id="7jzD0PrvkZTHDHuILsDN-49" value="Graph Update" style="rounded=0;whiteSpace=wrap;html=1;" vertex="1" parent="1">
          <mxGeometry x="305" y="210" width="90" height="40" as="geometry" />
        </mxCell>
        <mxCell id="7jzD0PrvkZTHDHuILsDN-50" value="DCS Update" style="rounded=0;whiteSpace=wrap;html=1;" vertex="1" parent="1">
          <mxGeometry x="420" y="210" width="60" height="40" as="geometry" />
        </mxCell>
        <mxCell id="7jzD0PrvkZTHDHuILsDN-52" value="" style="endArrow=none;html=1;rounded=0;entryX=1;entryY=0.25;entryDx=0;entryDy=0;" edge="1" parent="1" target="7jzD0PrvkZTHDHuILsDN-6">
          <mxGeometry width="50" height="50" relative="1" as="geometry">
            <mxPoint x="300" y="260" as="sourcePoint" />
            <mxPoint x="250" y="220" as="targetPoint" />
          </mxGeometry>
        </mxCell>
        <mxCell id="7jzD0PrvkZTHDHuILsDN-53" value="" style="endArrow=none;html=1;rounded=0;exitX=1;exitY=0;exitDx=0;exitDy=0;" edge="1" parent="1" source="7jzD0PrvkZTHDHuILsDN-11">
          <mxGeometry width="50" height="50" relative="1" as="geometry">
            <mxPoint x="500" y="270" as="sourcePoint" />
            <mxPoint x="480" y="260" as="targetPoint" />
          </mxGeometry>
        </mxCell>
        <mxCell id="7jzD0PrvkZTHDHuILsDN-54" value="" style="rounded=0;whiteSpace=wrap;html=1;" vertex="1" parent="1">
          <mxGeometry x="760" y="310" width="370" height="50" as="geometry" />
        </mxCell>
        <mxCell id="7jzD0PrvkZTHDHuILsDN-55" value="Update" style="text;html=1;align=center;verticalAlign=middle;whiteSpace=wrap;rounded=0;" vertex="1" parent="1">
          <mxGeometry x="760" y="310" width="60" height="30" as="geometry" />
        </mxCell>
        <mxCell id="7jzD0PrvkZTHDHuILsDN-56" value="Add/Remove Vertex" style="rounded=0;whiteSpace=wrap;html=1;" vertex="1" parent="1">
          <mxGeometry x="820" y="315" width="90" height="40" as="geometry" />
        </mxCell>
        <mxCell id="7jzD0PrvkZTHDHuILsDN-57" value="Add/Remove Edge" style="rounded=0;whiteSpace=wrap;html=1;" vertex="1" parent="1">
          <mxGeometry x="940" y="315" width="90" height="40" as="geometry" />
        </mxCell>
        <mxCell id="7jzD0PrvkZTHDHuILsDN-58" value="FindMatches" style="rounded=0;whiteSpace=wrap;html=1;" vertex="1" parent="1">
          <mxGeometry x="1100" y="420" width="90" height="40" as="geometry" />
        </mxCell>
        <mxCell id="7jzD0PrvkZTHDHuILsDN-59" style="edgeStyle=orthogonalEdgeStyle;rounded=0;orthogonalLoop=1;jettySize=auto;html=1;exitX=1;exitY=0.5;exitDx=0;exitDy=0;entryX=0;entryY=0.5;entryDx=0;entryDy=0;" edge="1" parent="1" source="7jzD0PrvkZTHDHuILsDN-60" target="7jzD0PrvkZTHDHuILsDN-62">
          <mxGeometry relative="1" as="geometry" />
        </mxCell>
        <mxCell id="7jzD0PrvkZTHDHuILsDN-60" value="Graph Update" style="rounded=0;whiteSpace=wrap;html=1;" vertex="1" parent="1">
          <mxGeometry x="770" y="420" width="90" height="40" as="geometry" />
        </mxCell>
        <mxCell id="7jzD0PrvkZTHDHuILsDN-61" style="edgeStyle=orthogonalEdgeStyle;rounded=0;orthogonalLoop=1;jettySize=auto;html=1;exitX=1;exitY=0.5;exitDx=0;exitDy=0;entryX=0;entryY=0.5;entryDx=0;entryDy=0;" edge="1" parent="1" source="7jzD0PrvkZTHDHuILsDN-62" target="7jzD0PrvkZTHDHuILsDN-64">
          <mxGeometry relative="1" as="geometry" />
        </mxCell>
        <mxCell id="7jzD0PrvkZTHDHuILsDN-62" value="DCS Update" style="rounded=0;whiteSpace=wrap;html=1;" vertex="1" parent="1">
          <mxGeometry x="880" y="420" width="90" height="40" as="geometry" />
        </mxCell>
        <mxCell id="7jzD0PrvkZTHDHuILsDN-63" style="edgeStyle=orthogonalEdgeStyle;rounded=0;orthogonalLoop=1;jettySize=auto;html=1;exitX=1;exitY=0.5;exitDx=0;exitDy=0;entryX=0;entryY=0.5;entryDx=0;entryDy=0;" edge="1" parent="1" source="7jzD0PrvkZTHDHuILsDN-64" target="7jzD0PrvkZTHDHuILsDN-58">
          <mxGeometry relative="1" as="geometry" />
        </mxCell>
        <mxCell id="7jzD0PrvkZTHDHuILsDN-64" value="Enumerate Candidate" style="rounded=0;whiteSpace=wrap;html=1;" vertex="1" parent="1">
          <mxGeometry x="990" y="420" width="90" height="40" as="geometry" />
        </mxCell>
        <mxCell id="7jzD0PrvkZTHDHuILsDN-65" value="" style="endArrow=none;html=1;rounded=0;entryX=0;entryY=1;entryDx=0;entryDy=0;" edge="1" parent="1" target="7jzD0PrvkZTHDHuILsDN-57">
          <mxGeometry width="50" height="50" relative="1" as="geometry">
            <mxPoint x="780" y="410" as="sourcePoint" />
            <mxPoint x="930" y="360" as="targetPoint" />
          </mxGeometry>
        </mxCell>
        <mxCell id="7jzD0PrvkZTHDHuILsDN-66" value="" style="endArrow=none;html=1;rounded=0;entryX=1;entryY=1;entryDx=0;entryDy=0;" edge="1" parent="1" target="7jzD0PrvkZTHDHuILsDN-57">
          <mxGeometry width="50" height="50" relative="1" as="geometry">
            <mxPoint x="1190" y="410" as="sourcePoint" />
            <mxPoint x="980" y="520" as="targetPoint" />
          </mxGeometry>
        </mxCell>
        <mxCell id="7jzD0PrvkZTHDHuILsDN-67" style="edgeStyle=orthogonalEdgeStyle;rounded=0;orthogonalLoop=1;jettySize=auto;html=1;exitX=1;exitY=0.5;exitDx=0;exitDy=0;entryX=0;entryY=0.5;entryDx=0;entryDy=0;" edge="1" parent="1" source="7jzD0PrvkZTHDHuILsDN-68" target="7jzD0PrvkZTHDHuILsDN-69">
          <mxGeometry relative="1" as="geometry" />
        </mxCell>
        <mxCell id="7jzD0PrvkZTHDHuILsDN-68" value="Graph Update" style="rounded=0;whiteSpace=wrap;html=1;" vertex="1" parent="1">
          <mxGeometry x="765" y="210" width="90" height="40" as="geometry" />
        </mxCell>
        <mxCell id="7jzD0PrvkZTHDHuILsDN-69" value="DCS Update" style="rounded=0;whiteSpace=wrap;html=1;" vertex="1" parent="1">
          <mxGeometry x="880" y="210" width="60" height="40" as="geometry" />
        </mxCell>
        <mxCell id="7jzD0PrvkZTHDHuILsDN-70" value="" style="endArrow=none;html=1;rounded=0;entryX=1;entryY=0.25;entryDx=0;entryDy=0;" edge="1" parent="1" target="7jzD0PrvkZTHDHuILsDN-55">
          <mxGeometry width="50" height="50" relative="1" as="geometry">
            <mxPoint x="760" y="260" as="sourcePoint" />
            <mxPoint x="710" y="220" as="targetPoint" />
          </mxGeometry>
        </mxCell>
        <mxCell id="7jzD0PrvkZTHDHuILsDN-71" value="" style="endArrow=none;html=1;rounded=0;exitX=1;exitY=0;exitDx=0;exitDy=0;" edge="1" parent="1" source="7jzD0PrvkZTHDHuILsDN-56">
          <mxGeometry width="50" height="50" relative="1" as="geometry">
            <mxPoint x="960" y="270" as="sourcePoint" />
            <mxPoint x="940" y="260" as="targetPoint" />
          </mxGeometry>
        </mxCell>
        <mxCell id="7jzD0PrvkZTHDHuILsDN-73" value="Symbi" style="rounded=0;whiteSpace=wrap;html=1;" vertex="1" parent="1">
          <mxGeometry x="-260" y="70" width="120" height="60" as="geometry" />
        </mxCell>
      </root>
    </mxGraphModel>
  </diagram>
</mxfile>
